<mxfile host="app.diagrams.net" modified="2023-02-04T04:28:06.348Z" agent="5.0 (Macintosh; Intel Mac OS X 10_15_7) AppleWebKit/537.36 (KHTML, like Gecko) Chrome/109.0.0.0 Safari/537.36" version="20.8.5" etag="H8--Ruc3S447T6pG0iEv" type="github">
  <diagram id="IFlSG7rVjGhNM7nsyIuD" name="Page-1">
    <mxGraphModel dx="954" dy="617" grid="1" gridSize="10" guides="1" tooltips="1" connect="1" arrows="1" fold="1" page="1" pageScale="1" pageWidth="850" pageHeight="1100" math="0" shadow="0">
      <root>
        <mxCell id="0" />
        <mxCell id="1" parent="0" />
        <mxCell id="Ikc5LVRCl3tKbmJLk8Lp-2" value="&lt;font size=&quot;1&quot;&gt;&lt;b style=&quot;font-size: 22px;&quot;&gt;{ p, t }&lt;/b&gt;&lt;/font&gt;" style="ellipse;whiteSpace=wrap;html=1;fontFamily=Helvetica;fontSize=12;fillColor=#dae8fc;strokeColor=#6c8ebf;" vertex="1" parent="1">
          <mxGeometry x="190" y="520" width="120" height="80" as="geometry" />
        </mxCell>
        <mxCell id="Ikc5LVRCl3tKbmJLk8Lp-5" value="&lt;font size=&quot;1&quot;&gt;&lt;b style=&quot;font-size: 22px;&quot;&gt;{ q, x }&lt;/b&gt;&lt;/font&gt;" style="ellipse;whiteSpace=wrap;html=1;fontFamily=Helvetica;fontSize=12;fillColor=#dae8fc;strokeColor=#6c8ebf;" vertex="1" parent="1">
          <mxGeometry x="190" y="860" width="120" height="80" as="geometry" />
        </mxCell>
        <mxCell id="Ikc5LVRCl3tKbmJLk8Lp-6" value="&lt;font size=&quot;1&quot;&gt;&lt;b style=&quot;font-size: 22px;&quot;&gt;{ p, u }&lt;/b&gt;&lt;/font&gt;" style="ellipse;whiteSpace=wrap;html=1;fontFamily=Helvetica;fontSize=12;fillColor=#dae8fc;strokeColor=#6c8ebf;" vertex="1" parent="1">
          <mxGeometry x="190" y="690" width="120" height="80" as="geometry" />
        </mxCell>
        <mxCell id="Ikc5LVRCl3tKbmJLk8Lp-12" value="" style="endArrow=classic;html=1;rounded=0;fontFamily=Helvetica;fontSize=22;exitX=0.625;exitY=1;exitDx=0;exitDy=0;exitPerimeter=0;entryX=0.625;entryY=-0.012;entryDx=0;entryDy=0;entryPerimeter=0;fillColor=#e51400;strokeColor=#B20000;" edge="1" parent="1" source="Ikc5LVRCl3tKbmJLk8Lp-2" target="Ikc5LVRCl3tKbmJLk8Lp-6">
          <mxGeometry relative="1" as="geometry">
            <mxPoint x="265" y="640" as="sourcePoint" />
            <mxPoint x="365" y="640" as="targetPoint" />
          </mxGeometry>
        </mxCell>
        <mxCell id="Ikc5LVRCl3tKbmJLk8Lp-13" value="s" style="edgeLabel;resizable=0;html=1;align=center;verticalAlign=middle;fontFamily=Helvetica;fontSize=22;" connectable="0" vertex="1" parent="Ikc5LVRCl3tKbmJLk8Lp-12">
          <mxGeometry relative="1" as="geometry" />
        </mxCell>
        <mxCell id="Ikc5LVRCl3tKbmJLk8Lp-14" value="" style="endArrow=classic;html=1;rounded=0;fontFamily=Helvetica;fontSize=22;exitX=0.292;exitY=0;exitDx=0;exitDy=0;exitPerimeter=0;fillColor=#e51400;strokeColor=#B20000;" edge="1" parent="1" source="Ikc5LVRCl3tKbmJLk8Lp-6">
          <mxGeometry relative="1" as="geometry">
            <mxPoint x="125" y="650" as="sourcePoint" />
            <mxPoint x="225" y="600" as="targetPoint" />
          </mxGeometry>
        </mxCell>
        <mxCell id="Ikc5LVRCl3tKbmJLk8Lp-15" value="r" style="edgeLabel;resizable=0;html=1;align=center;verticalAlign=middle;fontFamily=Helvetica;fontSize=22;" connectable="0" vertex="1" parent="Ikc5LVRCl3tKbmJLk8Lp-14">
          <mxGeometry relative="1" as="geometry" />
        </mxCell>
        <mxCell id="Ikc5LVRCl3tKbmJLk8Lp-16" value="" style="endArrow=classic;html=1;rounded=0;fontFamily=Helvetica;fontSize=22;exitX=0.65;exitY=1;exitDx=0;exitDy=0;exitPerimeter=0;entryX=0.65;entryY=0;entryDx=0;entryDy=0;entryPerimeter=0;fillColor=#e51400;strokeColor=#B20000;" edge="1" parent="1" source="Ikc5LVRCl3tKbmJLk8Lp-6" target="Ikc5LVRCl3tKbmJLk8Lp-5">
          <mxGeometry relative="1" as="geometry">
            <mxPoint x="250" y="810" as="sourcePoint" />
            <mxPoint x="350" y="810" as="targetPoint" />
          </mxGeometry>
        </mxCell>
        <mxCell id="Ikc5LVRCl3tKbmJLk8Lp-17" value="v" style="edgeLabel;resizable=0;html=1;align=center;verticalAlign=middle;fontFamily=Helvetica;fontSize=22;" connectable="0" vertex="1" parent="Ikc5LVRCl3tKbmJLk8Lp-16">
          <mxGeometry relative="1" as="geometry" />
        </mxCell>
        <mxCell id="Ikc5LVRCl3tKbmJLk8Lp-18" value="" style="endArrow=classic;html=1;rounded=0;fontFamily=Helvetica;fontSize=22;entryX=0.308;entryY=1;entryDx=0;entryDy=0;entryPerimeter=0;exitX=0.3;exitY=0.013;exitDx=0;exitDy=0;exitPerimeter=0;fillColor=#e51400;strokeColor=#B20000;" edge="1" parent="1" source="Ikc5LVRCl3tKbmJLk8Lp-5" target="Ikc5LVRCl3tKbmJLk8Lp-6">
          <mxGeometry relative="1" as="geometry">
            <mxPoint x="145" y="810" as="sourcePoint" />
            <mxPoint x="245" y="810" as="targetPoint" />
          </mxGeometry>
        </mxCell>
        <mxCell id="Ikc5LVRCl3tKbmJLk8Lp-19" value="w" style="edgeLabel;resizable=0;html=1;align=center;verticalAlign=middle;fontFamily=Helvetica;fontSize=22;" connectable="0" vertex="1" parent="Ikc5LVRCl3tKbmJLk8Lp-18">
          <mxGeometry relative="1" as="geometry" />
        </mxCell>
        <mxCell id="Ikc5LVRCl3tKbmJLk8Lp-20" value="" style="html=1;shadow=0;dashed=0;align=center;verticalAlign=middle;shape=mxgraph.arrows2.arrow;dy=0.6;dx=40;flipH=1;notch=0;fontFamily=Helvetica;fontSize=22;fillColor=#ffe6cc;strokeColor=#d79b00;" vertex="1" parent="1">
          <mxGeometry x="335" y="545" width="70" height="30" as="geometry" />
        </mxCell>
        <mxCell id="Ikc5LVRCl3tKbmJLk8Lp-24" value="" style="html=1;shadow=0;dashed=0;align=center;verticalAlign=middle;shape=mxgraph.arrows2.arrow;dy=0.6;dx=40;flipH=1;notch=0;fontFamily=Helvetica;fontSize=22;fillColor=#ffe6cc;strokeColor=#d79b00;" vertex="1" parent="1">
          <mxGeometry x="335" y="885" width="70" height="30" as="geometry" />
        </mxCell>
        <mxCell id="Ikc5LVRCl3tKbmJLk8Lp-25" value="" style="html=1;shadow=0;dashed=0;align=center;verticalAlign=middle;shape=mxgraph.arrows2.arrow;dy=0.6;dx=40;flipH=1;notch=0;fontFamily=Helvetica;fontSize=22;fillColor=#ffe6cc;strokeColor=#d79b00;" vertex="1" parent="1">
          <mxGeometry x="335" y="715" width="70" height="30" as="geometry" />
        </mxCell>
        <mxCell id="Ikc5LVRCl3tKbmJLk8Lp-27" value="&lt;h1&gt;&lt;font style=&quot;font-size: 36px;&quot; color=&quot;#000000&quot;&gt;Kripke Structure of a Credit Transaction&lt;/font&gt;&lt;/h1&gt;&lt;div style=&quot;&quot;&gt;&lt;ul style=&quot;&quot;&gt;&lt;li style=&quot;font-size: 12px;&quot;&gt;&lt;font color=&quot;#000000&quot;&gt;&lt;b&gt;S: BLUE&lt;/b&gt;&lt;/font&gt;&lt;/li&gt;&lt;ul style=&quot;font-size: 12px;&quot;&gt;&lt;li&gt;&lt;p style=&quot;margin: 0in; font-size: 11pt;&quot;&gt;&lt;font color=&quot;#000000&quot;&gt;($, ENC)&lt;/font&gt;&lt;/p&gt;&lt;/li&gt;&lt;li&gt;&lt;p style=&quot;margin: 0in; font-size: 11pt;&quot;&gt;&lt;span style=&quot;font-size: 11pt; background-color: initial;&quot;&gt;&lt;font color=&quot;#000000&quot;&gt;(PG, SAFE)&lt;/font&gt;&lt;/span&gt;&lt;/p&gt;&lt;/li&gt;&lt;li&gt;&lt;p style=&quot;margin: 0in; font-size: 11pt;&quot;&gt;&lt;span style=&quot;font-size: 11pt; background-color: initial;&quot;&gt;&lt;font color=&quot;#000000&quot;&gt;(PG, HACK)&lt;/font&gt;&lt;/span&gt;&lt;/p&gt;&lt;/li&gt;&lt;li&gt;&lt;p style=&quot;margin: 0in; font-size: 11pt;&quot;&gt;&lt;span style=&quot;font-size: 11pt; background-color: initial;&quot;&gt;&lt;font color=&quot;#000000&quot;&gt;(M, SAFE)&lt;/font&gt;&lt;/span&gt;&lt;/p&gt;&lt;/li&gt;&lt;li&gt;&lt;p style=&quot;margin: 0in; font-size: 11pt;&quot;&gt;&lt;span style=&quot;font-size: 11pt; background-color: initial;&quot;&gt;&lt;font color=&quot;#000000&quot;&gt;(M, HACK)&lt;/font&gt;&lt;/span&gt;&lt;/p&gt;&lt;/li&gt;&lt;li&gt;&lt;p style=&quot;margin: 0in; font-size: 11pt;&quot;&gt;&lt;span style=&quot;font-size: 11pt; background-color: initial;&quot;&gt;&lt;font color=&quot;#000000&quot;&gt;(CC, SAFE)&lt;/font&gt;&lt;/span&gt;&lt;/p&gt;&lt;/li&gt;&lt;li&gt;&lt;p style=&quot;margin: 0in; font-size: 11pt;&quot;&gt;&lt;span style=&quot;font-size: 11pt; background-color: initial;&quot;&gt;&lt;font color=&quot;#000000&quot;&gt;(CC, HACK)&lt;/font&gt;&lt;/span&gt;&lt;/p&gt;&lt;/li&gt;&lt;li&gt;&lt;p style=&quot;margin: 0in; font-size: 11pt;&quot;&gt;&lt;span style=&quot;font-size: 11pt; background-color: initial;&quot;&gt;&lt;font color=&quot;#000000&quot;&gt;(B, D)&lt;/font&gt;&lt;/span&gt;&lt;/p&gt;&lt;/li&gt;&lt;li&gt;&lt;p style=&quot;margin: 0in; font-size: 11pt;&quot;&gt;&lt;span style=&quot;font-size: 11pt; background-color: initial;&quot;&gt;&lt;font color=&quot;#000000&quot;&gt;(B, A)&lt;/font&gt;&lt;/span&gt;&lt;/p&gt;&lt;/li&gt;&lt;li&gt;&lt;p style=&quot;margin: 0in; font-size: 11pt;&quot;&gt;&lt;span style=&quot;font-size: 11pt; background-color: initial;&quot;&gt;&lt;font color=&quot;#000000&quot;&gt;($, UN)&lt;/font&gt;&lt;/span&gt;&lt;/p&gt;&lt;/li&gt;&lt;li&gt;&lt;p style=&quot;margin: 0in; font-size: 11pt;&quot;&gt;&lt;span style=&quot;font-size: 11pt; background-color: initial;&quot;&gt;&lt;font color=&quot;#000000&quot;&gt;As well as all of the assorted combinations of these&lt;/font&gt;&lt;/span&gt;&lt;/p&gt;&lt;/li&gt;&lt;/ul&gt;&lt;/ul&gt;&lt;div&gt;&lt;font color=&quot;#000000&quot;&gt;&lt;span style=&quot;font-size: 14.6667px;&quot;&gt;&lt;br&gt;&lt;/span&gt;&lt;/font&gt;&lt;/div&gt;&lt;ul style=&quot;&quot;&gt;&lt;li style=&quot;font-size: 14px; border-color: var(--border-color);&quot;&gt;&lt;font style=&quot;border-color: var(--border-color); font-size: 14px;&quot; color=&quot;#000000&quot;&gt;&lt;span style=&quot;border-color: var(--border-color);&quot;&gt;&lt;b&gt;R ⊂&lt;/b&gt;&lt;/span&gt;&lt;b style=&quot;border-color: var(--border-color);&quot;&gt; S&amp;nbsp;╳ S: RED&lt;/b&gt;&lt;/font&gt;&lt;/li&gt;&lt;ul style=&quot;font-size: 14px; border-color: var(--border-color);&quot;&gt;&lt;li style=&quot;border-color: var(--border-color);&quot;&gt;&lt;p style=&quot;border-color: var(--border-color); margin: 0in;&quot;&gt;&lt;font style=&quot;border-color: var(--border-color); font-size: 14px;&quot; color=&quot;#000000&quot;&gt;{($, ENC), ($, UN)}&lt;/font&gt;&lt;/p&gt;&lt;/li&gt;&lt;li style=&quot;border-color: var(--border-color);&quot;&gt;&lt;p style=&quot;border-color: var(--border-color); margin: 0in;&quot;&gt;&lt;font style=&quot;border-color: var(--border-color); font-size: 14px;&quot; color=&quot;#000000&quot;&gt;{($, UN), ($, ENC)}&lt;/font&gt;&lt;/p&gt;&lt;/li&gt;&lt;li style=&quot;border-color: var(--border-color);&quot;&gt;&lt;p style=&quot;border-color: var(--border-color); margin: 0in;&quot;&gt;&lt;font color=&quot;#000000&quot;&gt;{($, ENC), (B, A)}&lt;/font&gt;&lt;/p&gt;&lt;/li&gt;&lt;li style=&quot;border-color: var(--border-color);&quot;&gt;&lt;p style=&quot;border-color: var(--border-color); margin: 0in;&quot;&gt;&lt;font color=&quot;#000000&quot;&gt;{(B, A), ($, ENC)}&lt;/font&gt;&lt;/p&gt;&lt;/li&gt;&lt;/ul&gt;&lt;/ul&gt;&lt;/div&gt;" style="text;html=1;strokeColor=none;fillColor=none;spacing=5;spacingTop=-20;whiteSpace=wrap;overflow=hidden;rounded=0;fontFamily=Helvetica;fontSize=22;fontColor=#FF3333;" vertex="1" parent="1">
          <mxGeometry x="40" y="40" width="770" height="470" as="geometry" />
        </mxCell>
        <mxCell id="Ikc5LVRCl3tKbmJLk8Lp-28" value="&lt;h1 style=&quot;font-size: 14px;&quot;&gt;&lt;ul style=&quot;border-color: var(--border-color);&quot;&gt;&lt;li style=&quot;font-weight: 400; border-color: var(--border-color);&quot;&gt;&lt;font style=&quot;border-color: var(--border-color); font-size: 14px;&quot; color=&quot;#000000&quot;&gt;&lt;b style=&quot;border-color: var(--border-color);&quot;&gt;I&amp;nbsp;&lt;b style=&quot;border-color: var(--border-color);&quot;&gt;⊂ S&lt;/b&gt;: ORANGE&lt;/b&gt;&lt;/font&gt;&lt;/li&gt;&lt;ul style=&quot;font-weight: 400; border-color: var(--border-color);&quot;&gt;&lt;li style=&quot;border-color: var(--border-color);&quot;&gt;&lt;p style=&quot;border-color: var(--border-color); margin: 0in;&quot;&gt;&lt;font style=&quot;border-color: var(--border-color); font-size: 14px;&quot; color=&quot;#000000&quot;&gt;($, ENC)&lt;/font&gt;&lt;/p&gt;&lt;/li&gt;&lt;li style=&quot;border-color: var(--border-color);&quot;&gt;&lt;p style=&quot;border-color: var(--border-color); margin: 0in;&quot;&gt;&lt;font style=&quot;border-color: var(--border-color); font-size: 14px;&quot; color=&quot;#000000&quot;&gt;($, UN)&lt;/font&gt;&lt;/p&gt;&lt;/li&gt;&lt;li style=&quot;border-color: var(--border-color);&quot;&gt;&lt;p style=&quot;border-color: var(--border-color); margin: 0in;&quot;&gt;(PG, SAFE)&lt;/p&gt;&lt;/li&gt;&lt;li style=&quot;border-color: var(--border-color);&quot;&gt;&lt;p style=&quot;border-color: var(--border-color); margin: 0in;&quot;&gt;&lt;span style=&quot;background-color: initial;&quot;&gt;(M, SAFE)&lt;/span&gt;&lt;/p&gt;&lt;/li&gt;&lt;li style=&quot;border-color: var(--border-color);&quot;&gt;&lt;p style=&quot;border-color: var(--border-color); margin: 0in;&quot;&gt;&lt;span style=&quot;border-color: var(--border-color); background-color: initial;&quot;&gt;(CC, SAFE)&lt;/span&gt;&lt;/p&gt;&lt;/li&gt;&lt;li style=&quot;border-color: var(--border-color);&quot;&gt;&lt;p style=&quot;border-color: var(--border-color); margin: 0in;&quot;&gt;&lt;span style=&quot;border-color: var(--border-color); background-color: initial;&quot;&gt;(B, A)&lt;/span&gt;&lt;/p&gt;&lt;/li&gt;&lt;/ul&gt;&lt;/ul&gt;&lt;div&gt;&lt;span style=&quot;font-weight: 400;&quot;&gt;&lt;br&gt;&lt;/span&gt;&lt;/div&gt;&lt;ul style=&quot;border-color: var(--border-color);&quot;&gt;&lt;li style=&quot;&quot;&gt;AP:&lt;/li&gt;&lt;ul&gt;&lt;li style=&quot;&quot;&gt;&lt;span style=&quot;font-weight: normal;&quot;&gt;p:&amp;nbsp;&lt;/span&gt;∀ T status(c(CC, M, PG)) ≠ HACK&lt;/li&gt;&lt;li style=&quot;border-color: var(--border-color);&quot;&gt;q:&amp;nbsp;∀ T&amp;nbsp;status(B) == A&lt;/li&gt;&lt;li style=&quot;border-color: var(--border-color);&quot;&gt;r: {($, ENC), ($, UN)}&lt;/li&gt;&lt;li style=&quot;border-color: var(--border-color);&quot;&gt;s: {($, UN), ($, ENC)}&lt;/li&gt;&lt;li style=&quot;border-color: var(--border-color);&quot;&gt;t: ($, UN)&lt;/li&gt;&lt;li style=&quot;border-color: var(--border-color);&quot;&gt;u: ($, ENC)&lt;/li&gt;&lt;li style=&quot;border-color: var(--border-color);&quot;&gt;v: {($, ENC), (B, A)}&lt;/li&gt;&lt;li style=&quot;border-color: var(--border-color);&quot;&gt;w: {(B, A), ($, ENC)}&lt;/li&gt;&lt;li style=&quot;border-color: var(--border-color);&quot;&gt;x: (B, A)&lt;/li&gt;&lt;/ul&gt;&lt;/ul&gt;&lt;ul style=&quot;border-color: var(--border-color); font-weight: 400;&quot;&gt;&lt;li style=&quot;border-color: var(--border-color);&quot;&gt;&lt;font style=&quot;border-color: var(--border-color); font-size: 14px;&quot; color=&quot;#000000&quot;&gt;&lt;b style=&quot;border-color: var(--border-color);&quot;&gt;L ⊂&lt;/b&gt;&lt;b style=&quot;border-color: var(--border-color);&quot;&gt;&amp;nbsp;S --&amp;gt; 2&lt;sup&gt;AP&lt;/sup&gt;: BLACK&lt;/b&gt;&lt;/font&gt;&lt;/li&gt;&lt;ul style=&quot;border-color: var(--border-color);&quot;&gt;&lt;li style=&quot;border-color: var(--border-color);&quot;&gt;&lt;p style=&quot;border-color: var(--border-color); margin: 0in;&quot;&gt;[($, UN), {p, t, r, s}]&lt;/p&gt;&lt;/li&gt;&lt;li style=&quot;border-color: var(--border-color);&quot;&gt;&lt;p style=&quot;border-color: var(--border-color); margin: 0in;&quot;&gt;[($, ENC), {p, r, s, u, v, w}]&lt;/p&gt;&lt;/li&gt;&lt;li style=&quot;border-color: var(--border-color);&quot;&gt;&lt;p style=&quot;border-color: var(--border-color); margin: 0in;&quot;&gt;[(B, A), {q, v, w, x}]&lt;/p&gt;&lt;/li&gt;&lt;/ul&gt;&lt;/ul&gt;&lt;/h1&gt;" style="text;html=1;strokeColor=none;fillColor=none;spacing=5;spacingTop=-20;whiteSpace=wrap;overflow=hidden;rounded=0;fontFamily=Helvetica;fontSize=12;fontColor=#000000;" vertex="1" parent="1">
          <mxGeometry x="463" y="130" width="337" height="470" as="geometry" />
        </mxCell>
        <mxCell id="Ikc5LVRCl3tKbmJLk8Lp-29" value="&lt;p&gt;&lt;/p&gt;&lt;b&gt;KEY:&lt;/b&gt;&lt;br&gt;&lt;p style=&quot;margin: 0in; font-size: 11pt;&quot;&gt;Encrypted: ENC&lt;/p&gt;&lt;span style=&quot;font-size: 11pt; background-color: initial;&quot;&gt;Unencrypted: UN&lt;/span&gt;&lt;br&gt;&lt;span style=&quot;font-size: 11pt; background-color: initial;&quot;&gt;Approved: A&lt;/span&gt;&lt;br&gt;&lt;span style=&quot;font-size: 11pt; background-color: initial;&quot;&gt;Denied: D&lt;/span&gt;&lt;br&gt;&lt;span style=&quot;font-size: 11pt; background-color: initial;&quot;&gt;Hacked: HACK&lt;/span&gt;&lt;br&gt;&lt;span style=&quot;font-size: 11pt; background-color: initial;&quot;&gt;Not-hacked: SAFE&lt;/span&gt;&lt;br&gt;&lt;span style=&quot;font-size: 11pt; background-color: initial;&quot;&gt;Customer computer:&lt;/span&gt;&lt;br&gt;&lt;p style=&quot;margin: 0in; font-size: 11pt;&quot;&gt;CC&lt;/p&gt;&lt;span style=&quot;font-size: 11pt; background-color: initial;&quot;&gt;Merchant: M&lt;/span&gt;&lt;br&gt;&lt;span style=&quot;font-size: 11pt; background-color: initial;&quot;&gt;Bank: B&lt;/span&gt;&lt;br&gt;&lt;span style=&quot;font-size: 11pt; background-color: initial;&quot;&gt;Card info: $&lt;/span&gt;&lt;br&gt;&lt;span style=&quot;font-size: 11pt; background-color: initial;&quot;&gt;Transaction: T&lt;/span&gt;&lt;br&gt;&lt;p style=&quot;margin: 0in; font-size: 11pt;&quot;&gt;Payment gateway: PG&lt;/p&gt;&lt;br&gt;&lt;br&gt;&lt;br&gt;&lt;br&gt;" style="text;html=1;strokeColor=none;fillColor=none;spacing=5;spacingTop=-20;whiteSpace=wrap;overflow=hidden;rounded=0;fontFamily=Helvetica;fontSize=14;fontColor=#000000;" vertex="1" parent="1">
          <mxGeometry x="540" y="605" width="270" height="330" as="geometry" />
        </mxCell>
      </root>
    </mxGraphModel>
  </diagram>
</mxfile>
